<svg xmlns="http://www.w3.org/2000/svg" width="56" height="43.553" viewBox="0 0 56 43.553">
  <path id="book-open-solid" d="M14.028,32.005a29.654,29.654,0,0,0-12.22,2.844A3.09,3.09,0,0,0,0,37.682V72.447a1.55,1.55,0,0,0,2.183,1.424c12.279-5.749,21.368,1.069,21.757,1.362a1.54,1.54,0,0,0,.948.321A1.565,1.565,0,0,0,26.443,74V36.671a1.557,1.557,0,0,0-.659-1.272A22.4,22.4,0,0,0,14.028,32.005Zm40.16,2.844A30.453,30.453,0,0,0,41.969,32,22.756,22.756,0,0,0,30.215,35.4a1.548,1.548,0,0,0-.661,1.273V73.915a1.588,1.588,0,0,0,1.555,1.639,1.551,1.551,0,0,0,.951-.324c.382-.293,9.473-7.112,21.757-1.361A1.55,1.55,0,0,0,56,72.446V37.681A3.255,3.255,0,0,0,54.189,34.849Z" transform="translate(0 -32.001)" fill="#026cc4"/>
</svg>
