<svg xmlns="http://www.w3.org/2000/svg" width="56" height="49.778" viewBox="0 0 56 49.778">
  <path id="boxes-stacked-solid" d="M15.556,4.667A4.667,4.667,0,0,1,20.222,0h4.667V7.778a1.558,1.558,0,0,0,1.556,1.556h3.111a1.558,1.558,0,0,0,1.556-1.556V0h4.667a4.667,4.667,0,0,1,4.667,4.667V17.111a4.668,4.668,0,0,1-4.667,4.667H20.222a4.668,4.668,0,0,1-4.667-4.667ZM9.333,28v7.778a1.56,1.56,0,0,0,1.556,1.556H14a1.56,1.56,0,0,0,1.556-1.556V28h4.667a4.668,4.668,0,0,1,4.667,4.667V45.111a4.668,4.668,0,0,1-4.667,4.667H4.667A4.667,4.667,0,0,1,0,45.111V32.667A4.667,4.667,0,0,1,4.667,28Zm31.111,0v7.778A1.56,1.56,0,0,0,42,37.333h3.111a1.56,1.56,0,0,0,1.556-1.556V28h4.667A4.668,4.668,0,0,1,56,32.667V45.111a4.668,4.668,0,0,1-4.667,4.667H35.778a4.668,4.668,0,0,1-4.667-4.667V32.667A4.668,4.668,0,0,1,35.778,28Z" fill="#026cc4"/>
</svg>
