<svg xmlns="http://www.w3.org/2000/svg" width="91.432" height="64" viewBox="0 0 91.432 64">
  <path id="graduation-cap-solid" d="M89.018,47,48.63,32.544a8.993,8.993,0,0,0-6.062,0L2.293,47a3.52,3.52,0,0,0,0,6.6l8.575,3.073A19.751,19.751,0,0,0,7.36,64.381a4.573,4.573,0,0,0-2.789,4.207,4.5,4.5,0,0,0,1.706,3.48L2.73,93.355a2.287,2.287,0,0,0,2.254,2.663H13.3a2.285,2.285,0,0,0,2.254-2.662L12.009,72.069a4.692,4.692,0,0,0,1.706-3.482A4.493,4.493,0,0,0,11.9,65.032a15.186,15.186,0,0,1,3.563-6.719l27.23,9.748a8.993,8.993,0,0,0,6.062,0L89.139,53.6a3.5,3.5,0,0,0,2.293-3.3A3.444,3.444,0,0,0,89.018,47ZM50.159,72.359a12.27,12.27,0,0,1-4.443.8,13.539,13.539,0,0,1-4.572-.794L20.4,64.945l-2.114,20.4c0,5.9,12.158,10.672,27.43,10.672,15.015,0,27.43-4.772,27.43-10.668L71.034,64.935Z" transform="translate(0 -32.018)" fill="#026cc4"/>
</svg>
