<svg xmlns="http://www.w3.org/2000/svg" width="56" height="49.006" viewBox="0 0 56 49.006">
  <path id="leaf-solid" d="M56,46.544C56,60.534,48.34,72.28,36.828,76.087a19.164,19.164,0,0,1-24.105-8.97A26.564,26.564,0,0,0,5.18,78.94a2.626,2.626,0,0,1-2.552,2.014,2.7,2.7,0,0,1-.613-.072A2.629,2.629,0,0,1,.074,77.715c1.05-4.32,9.9-24.763,36.674-24.763a1.749,1.749,0,1,0,0-3.5c-11.747,0-20.234,3.784-26.218,8.269a19.723,19.723,0,0,1,.387-3.615A19.227,19.227,0,0,1,34.143,39.429a14.731,14.731,0,0,0,16.33-6.7,1.513,1.513,0,0,1,2.7.091A34.364,34.364,0,0,1,56,46.544Z" transform="translate(-0.002 -31.948)" fill="#026cc4"/>
</svg>
