<svg xmlns="http://www.w3.org/2000/svg" width="56" height="56" viewBox="0 0 56 56">
  <g id="percent" transform="translate(-1374 -4372)">
    <circle id="Ellipse_12" data-name="Ellipse 12" cx="28" cy="28" r="28" transform="translate(1374 4372)" fill="#026cc4"/>
    <path id="percent-solid" d="M23.388,64.6a2,2,0,0,0-2.828,0l-20,20A2,2,0,0,0,3.39,87.422l20-20A2,2,0,0,0,23.388,64.6ZM3.976,72.009a4,4,0,1,0-4-4A4,4,0,0,0,3.976,72.009Zm16,8a4,4,0,1,0,4,4A4,4,0,0,0,19.975,80.008Z" transform="translate(1390.025 4323.99)" fill="#fff"/>
  </g>
</svg>
