<svg xmlns="http://www.w3.org/2000/svg" width="56" height="49" viewBox="0 0 56 49">
  <path id="server-solid" d="M52.5,60H3.5A3.507,3.507,0,0,0,0,63.5v14A3.507,3.507,0,0,0,3.5,81h49A3.507,3.507,0,0,0,56,77.5v-14A3.51,3.51,0,0,0,52.5,60Zm-14,13.125A2.625,2.625,0,1,1,41.125,70.5,2.626,2.626,0,0,1,38.5,73.125Zm7,0A2.625,2.625,0,1,1,48.125,70.5,2.626,2.626,0,0,1,45.5,73.125ZM52.5,32H3.5A3.507,3.507,0,0,0,0,35.5v14A3.507,3.507,0,0,0,3.5,53h49A3.507,3.507,0,0,0,56,49.5v-14A3.509,3.509,0,0,0,52.5,32Zm-14,13.125A2.625,2.625,0,1,1,41.125,42.5,2.626,2.626,0,0,1,38.5,45.125Zm7,0A2.625,2.625,0,1,1,48.125,42.5,2.626,2.626,0,0,1,45.5,45.125Z" transform="translate(0 -32)" fill="#026cc4"/>
</svg>
